<?xml version="1.0" standalone="no"?><!DOCTYPE svg PUBLIC "-//W3C//DTD SVG 1.1//EN" "http://www.w3.org/Graphics/SVG/1.1/DTD/svg11.dtd" ><svg xmlns="http://www.w3.org/2000/svg"><metadata>Generated by Glyphter</metadata><defs><font id="Glyphter" horiz-adv-x="0"><font-face units-per-em="1024" ascent="1024" descent="0" font-family="Glyphter" font-weight="normal" /><missing-glyph horiz-adv-x="0" /><glyph unicode="&#x0041;" d="M196.1,2.769C162.459,2.769,135.169,30.058,135.169,63.7C135.169,63.7,135.169,450.675,135.169,450.675C131.766,497.443,180.252,530.404,222.482,509.953C244.975,499.096,258.522,475.598,256.707,450.675C256.707,450.675,256.707,63.7,256.707,63.7C256.707,30.188,229.612,2.963,196.1,2.769C196.1,2.769,196.1,2.769,196.1,2.769M829.392,0.5C795.75,0.5,768.461,27.789,768.461,61.431C768.461,61.431,768.461,448.406,768.461,448.406C771.864,495.174,824.66,520.713,863.455,494.364C878.849,483.895,888.637,466.977,889.999,448.406C889.999,448.406,889.999,61.431,889.999,61.431C889.999,27.919,862.904,0.694,829.392,0.5C829.392,0.5,829.392,0.5,829.392,0.5M510.801,2.769C477.16,2.769,449.871,30.058,449.871,63.7C449.871,63.7,449.871,967.939,449.871,967.939C453.274,1014.706,506.07,1040.245,544.864,1013.896C560.259,1003.428,570.047,986.51,571.408,967.939C571.408,967.939,571.408,63.7,571.408,63.7C571.408,30.188,544.313,2.963,510.801,2.769C510.801,2.769,510.801,2.769,510.801,2.769" class="icon-a"/><glyph unicode="&#x0042;" d="M353.539,0C320.114,0,293,27.114,293,60.539C293,60.539,293,958.958,293,958.958C296.381,1005.425,348.837,1030.799,387.382,1004.62C402.678,994.219,412.403,977.41,413.755,958.958C413.755,958.958,413.755,60.539,413.755,60.539C413.755,27.242,386.835,0.193,353.539,0C353.539,0,353.539,0,353.539,0M670.723,593.472C637.298,593.472,610.184,620.586,610.184,654.011C610.184,654.011,610.184,958.958,610.184,958.958C606.803,1005.425,654.976,1038.174,696.935,1017.855C719.282,1007.067,732.743,983.721,730.939,958.958C730.939,958.958,730.939,653.689,730.939,653.689C730.778,620.521,703.89,593.633,670.723,593.472C670.723,593.472,670.723,593.472,670.723,593.472M670.723,9.016C637.298,9.016,610.184,36.13,610.184,69.555C610.184,69.555,610.184,375.468,610.184,375.468C606.803,421.935,654.976,454.684,696.935,434.365C719.282,423.577,732.743,400.231,730.939,375.468C730.939,375.468,730.939,70.199,730.939,70.199C731.293,36.645,704.276,9.177,670.723,9.016C670.723,9.016,670.723,9.016,670.723,9.016" class="icon-b"/><glyph unicode="&#x0043;" d="M669.504,726.127C637.232,726.127,608.832,744.845,608.832,767.758C608.832,767.758,608.832,982.369,608.832,982.369C608.832,1005.282,635.941,1024,669.504,1024C703.067,1024,730.176,1005.282,730.176,982.369C730.176,982.369,730.176,767.758,730.176,767.758C730.176,744.845,703.067,726.127,669.504,726.127C669.504,726.127,669.504,726.127,669.504,726.127M669.504,0C637.232,0,608.832,18.718,608.832,41.631C608.832,41.631,608.832,256.565,608.832,256.565C608.832,279.478,635.941,298.196,669.504,298.196C703.067,298.196,730.176,279.478,730.176,256.565C730.176,256.565,730.176,41.631,730.176,41.631C730.176,18.718,703.067,0,669.504,0C669.504,0,669.504,0,669.504,0M355.172,115.858C322.9,115.858,294.5,136.189,294.5,161.039C294.5,161.039,294.5,834.239,294.5,834.239C294.5,859.089,321.609,879.42,355.172,879.42C388.735,879.42,415.844,859.089,415.844,834.239C415.844,834.239,415.844,161.361,415.844,161.361C415.521,136.189,388.412,115.858,355.172,115.858C355.172,115.858,355.172,115.858,355.172,115.858" class="icon-c"/><glyph unicode="&#x0044;" d="M198.039,0C164.614,0,137.5,27.114,137.5,60.539C137.5,60.539,137.5,958.958,137.5,958.958C140.881,1005.425,193.337,1030.799,231.882,1004.62C247.178,994.219,256.903,977.41,258.255,958.958C258.255,958.958,258.255,60.539,258.255,60.539C258.255,27.242,231.335,0.193,198.039,0C198.039,0,198.039,0,198.039,0M515.223,722.278C481.798,722.278,454.684,749.391,454.684,782.816C454.684,782.816,454.684,958.958,454.684,958.958C451.303,1005.425,499.476,1038.174,541.435,1017.855C563.782,1007.067,577.243,983.721,575.439,958.958C575.439,958.958,575.439,782.816,575.439,782.816C575.439,749.52,548.519,722.471,515.223,722.278C515.223,722.278,515.223,722.278,515.223,722.278M826.61,172.278C793.185,172.278,766.072,199.391,766.072,232.816C766.072,232.816,766.072,826.288,766.072,826.288C769.453,872.755,821.909,898.13,860.454,871.95C875.75,861.549,885.474,844.74,886.827,826.288C886.827,826.288,886.827,232.816,886.827,232.816C886.827,199.52,859.907,172.471,826.61,172.278C826.61,172.278,826.61,172.278,826.61,172.278M515.223,9.016C481.798,9.016,454.684,36.13,454.684,69.555C454.684,69.555,454.684,246.663,454.684,246.663C451.303,293.129,499.476,325.878,541.435,305.559C563.782,294.772,577.243,271.426,575.439,246.663C575.439,246.663,575.439,70.199,575.439,70.199C575.793,36.645,548.776,9.177,515.223,9.016C515.223,9.016,515.223,9.016,515.223,9.016" class="icon-d"/><glyph unicode="&#x0045;" d="M353.539,0C320.114,0,293,27.114,293,60.539C293,60.539,293,958.958,293,958.958C296.381,1005.425,348.837,1030.799,387.382,1004.62C402.678,994.219,412.403,977.41,413.755,958.958C413.755,958.958,413.755,60.539,413.755,60.539C413.755,27.242,386.835,0.193,353.539,0C353.539,0,353.539,0,353.539,0M670.723,754.479C637.298,754.479,610.184,781.593,610.184,815.018C610.184,815.018,610.184,958.958,610.184,958.958C606.803,1005.425,654.976,1038.174,696.935,1017.855C719.282,1007.067,732.743,983.721,730.939,958.958C730.939,958.958,730.939,815.018,730.939,815.018C730.939,781.722,704.019,754.672,670.723,754.479C670.723,754.479,670.723,754.479,670.723,754.479M670.723,397.687C637.298,397.687,610.184,424.801,610.184,458.226C610.184,458.226,610.184,600.878,610.184,600.878C606.803,647.345,654.976,680.094,696.935,659.775C719.282,648.987,732.743,625.641,730.939,600.878C730.939,600.878,730.939,456.938,730.939,456.938C730.231,424.125,703.536,397.848,670.723,397.687C670.723,397.687,670.723,397.687,670.723,397.687M670.723,9.016C637.298,9.016,610.184,36.13,610.184,69.555C610.184,69.555,610.184,246.663,610.184,246.663C606.803,293.129,654.976,325.878,696.935,305.559C719.282,294.772,732.743,271.426,730.939,246.663C730.939,246.663,730.939,70.199,730.939,70.199C731.293,36.645,704.276,9.177,670.723,9.016C670.723,9.016,670.723,9.016,670.723,9.016" class="icon-e"/><glyph unicode="&#x0046;" d="M353.539,0C320.114,0,293,27.114,293,60.539C293,60.539,293,958.958,293,958.958C296.381,1005.425,348.837,1030.799,387.382,1004.62C402.678,994.219,412.403,977.41,413.755,958.958C413.755,958.958,413.755,60.539,413.755,60.539C413.755,27.242,386.835,0.193,353.539,0C353.539,0,353.539,0,353.539,0M670.723,722.278C637.298,722.278,610.184,749.391,610.184,782.816C610.184,782.816,610.184,958.958,610.184,958.958C606.803,1005.425,654.976,1038.174,696.935,1017.855C719.282,1007.067,732.743,983.721,730.939,958.958C730.939,958.958,730.939,782.816,730.939,782.816C730.939,749.52,704.019,722.471,670.723,722.278C670.723,722.278,670.723,722.278,670.723,722.278M670.723,365.486C637.298,365.486,610.184,392.6,610.184,426.025C610.184,426.025,610.184,568.677,610.184,568.677C606.803,615.144,654.976,647.892,696.935,627.573C719.282,616.786,732.743,593.44,730.939,568.677C730.939,568.677,730.939,424.737,730.939,424.737C730.231,391.923,703.536,365.647,670.723,365.486C670.723,365.486,670.723,365.486,670.723,365.486" class="icon-f"/><glyph unicode="&#x0047;" d="M669.504,726.127C637.232,726.127,608.832,744.845,608.832,767.758C608.832,767.758,608.832,982.369,608.832,982.369C608.832,1005.282,635.941,1024,669.504,1024C703.067,1024,730.176,1005.282,730.176,982.369C730.176,982.369,730.176,767.758,730.176,767.758C730.176,744.845,703.067,726.127,669.504,726.127C669.504,726.127,669.504,726.127,669.504,726.127M669.504,0C634.747,0.678,607.38,29.82,608.832,64.545C608.832,64.545,608.832,392.431,608.832,392.431C605.444,439,653.723,471.821,695.774,451.457C718.171,440.646,731.661,417.249,729.853,392.431C729.853,392.431,729.853,63.576,729.853,63.576C730.757,29.336,703.745,0.871,669.504,0C669.504,0,669.504,0,669.504,0M355.172,115.858C322.9,115.858,294.5,136.189,294.5,161.039C294.5,161.039,294.5,834.239,294.5,834.239C294.5,859.089,321.609,879.42,355.172,879.42C388.735,879.42,415.844,859.089,415.844,834.239C415.844,834.239,415.844,161.361,415.844,161.361C415.521,136.189,388.412,115.858,355.172,115.858C355.172,115.858,355.172,115.858,355.172,115.858" class="icon-g"/><glyph unicode="&#x0048;" d="M512.401,361.3C480.199,361.3,451.862,379.977,451.862,402.84C451.862,402.84,451.862,616.979,451.862,616.979C451.862,639.842,478.911,658.519,512.401,658.519C545.89,658.519,572.939,639.842,572.939,616.979C572.939,616.979,572.939,402.518,572.939,402.518C572.939,379.655,545.89,361.3,512.401,361.3C512.401,361.3,512.401,361.3,512.401,361.3M195.539,0C162.114,0,135,27.114,135,60.539C135,60.539,135,958.958,135,958.958C138.381,1005.425,190.837,1030.799,229.382,1004.62C244.678,994.219,254.403,977.41,255.755,958.958C255.755,958.958,255.755,60.539,255.755,60.539C255.755,27.242,228.835,0.193,195.539,0C195.539,0,195.539,0,195.539,0M829.585,0C796.159,0,769.046,27.114,769.046,60.539C769.046,60.539,769.046,958.958,769.046,958.958C765.665,1005.425,813.838,1038.174,855.796,1017.855C878.144,1007.067,891.604,983.721,889.801,958.958C889.801,958.958,889.801,60.539,889.801,60.539C889.801,27.242,862.881,0.193,829.585,0C829.585,0,829.585,0,829.585,0" class="icon-h"/><glyph unicode="&#x0049;" d="M512.566,0.5C478.85,0.5,451.5,27.85,451.5,61.566C451.5,61.566,451.5,967.813,451.5,967.813C454.911,1014.685,507.824,1040.28,546.705,1013.873C562.134,1003.381,571.943,986.425,573.307,967.813C573.307,967.813,573.307,61.566,573.307,61.566C573.307,27.98,546.152,0.695,512.566,0.5C512.566,0.5,512.566,0.5,512.566,0.5" class="icon-i"/><glyph unicode="&#x004a;" d="M371.841,0C341.921,0,317.651,24.27,317.651,54.19C317.651,54.19,317.651,246.162,317.651,246.162C314.624,287.756,357.746,317.071,395.304,298.883C415.309,289.226,427.357,268.328,425.743,246.162C425.743,246.162,425.743,54.19,425.743,54.19C425.743,24.386,401.646,0.173,371.841,0C371.841,0,371.841,0,371.841,0M653.458,115.298C623.538,115.298,599.267,139.569,599.267,169.489C599.267,169.489,599.267,973.696,599.267,973.696C602.294,1015.29,649.249,1038.004,683.752,1014.569C697.444,1005.259,706.149,990.212,707.36,973.696C707.36,973.696,707.36,169.489,707.36,169.489C707.36,139.684,683.262,115.471,653.458,115.298C653.458,115.298,653.458,115.298,653.458,115.298" class="icon-j"/><glyph unicode="&#x004b;" d="M356.066,259.206C322.35,259.206,295,286.556,295,320.272C295,320.272,295,708.107,295,708.107C298.411,754.978,351.324,780.574,390.205,754.166C405.634,743.675,415.443,726.719,416.807,708.107C416.807,708.107,416.807,320.272,416.807,320.272C416.807,286.686,389.652,259.401,356.066,259.206C356.066,259.206,356.066,259.206,356.066,259.206M669.192,590.847C635.476,590.847,608.126,618.197,608.126,651.913C608.126,651.913,608.126,967.313,608.126,967.313C611.537,1014.185,664.45,1039.78,703.331,1013.373C718.76,1002.881,728.569,985.925,729.934,967.313C729.934,967.313,729.934,651.913,729.934,651.913C729.934,618.327,702.779,591.042,669.192,590.847C669.192,590.847,669.192,590.847,669.192,590.847M662.046,0C628.33,0,600.98,27.35,600.98,61.066C600.98,61.066,600.98,376.466,600.98,376.466C604.391,423.338,657.304,448.933,696.185,422.525C711.614,412.034,721.423,395.078,722.788,376.466C722.788,376.466,722.788,61.066,722.788,61.066C722.788,27.48,695.633,0.195,662.046,0C662.046,0,662.046,0,662.046,0" class="icon-k"/><glyph unicode="&#x004c;" d="M670.27,0.5C703.84,0.5,731.071,27.731,731.071,61.301C731.071,61.301,731.071,276.69,731.071,276.69C734.466,323.358,686.085,356.248,643.945,335.841C621.5,325.007,607.982,301.56,609.793,276.69C609.793,276.69,609.793,61.301,609.793,61.301C609.793,27.86,636.83,0.694,670.27,0.5C670.27,0.5,670.27,0.5,670.27,0.5M354.301,0.5C387.87,0.5,415.101,27.731,415.101,61.301C415.101,61.301,415.101,963.608,415.101,963.608C415.101,1010.405,364.423,1039.673,323.9,1016.259C305.078,1005.392,293.5,985.341,293.5,963.608C293.5,963.608,293.5,61.301,293.5,61.301C293.5,27.731,320.731,0.5,354.301,0.5C354.301,0.5,354.301,0.5,354.301,0.5" class="icon-l"/><glyph unicode="&#x004d;" d="M195.539,0C162.114,0,135,27.114,135,60.539C135,60.539,135,958.958,135,958.958C138.381,1005.425,190.837,1030.799,229.382,1004.62C244.678,994.219,254.403,977.41,255.755,958.958C255.755,958.958,255.755,60.539,255.755,60.539C255.755,27.242,228.835,0.193,195.539,0C195.539,0,195.539,0,195.539,0M508.536,192.564C475.111,192.564,447.998,219.678,447.998,253.103C447.998,253.103,447.998,637.588,447.998,637.588C444.617,684.055,492.79,716.803,534.748,696.484C557.096,685.697,570.556,662.351,568.753,637.588C568.753,637.588,568.753,253.103,568.753,253.103C568.753,219.807,541.833,192.758,508.536,192.564C508.536,192.564,508.536,192.564,508.536,192.564M829.585,0C796.159,0,769.046,27.114,769.046,60.539C769.046,60.539,769.046,958.958,769.046,958.958C765.665,1005.425,813.838,1038.174,855.796,1017.855C878.144,1007.067,891.604,983.721,889.801,958.958C889.801,958.958,889.801,60.539,889.801,60.539C889.801,27.242,862.881,0.193,829.585,0C829.585,0,829.585,0,829.585,0" class="icon-m"/><glyph unicode="&#x004e;" d="M351.566,0.5C317.85,0.5,290.5,27.85,290.5,61.566C290.5,61.566,290.5,967.813,290.5,967.813C293.911,1014.685,346.824,1040.28,385.705,1013.873C401.134,1003.381,410.943,986.425,412.307,967.813C412.307,967.813,412.307,61.566,412.307,61.566C412.307,27.98,385.152,0.695,351.566,0.5C351.566,0.5,351.566,0.5,351.566,0.5M673.462,0.5C639.746,0.5,612.396,27.85,612.396,61.566C612.396,61.566,612.396,967.813,612.396,967.813C615.807,1014.685,668.72,1040.28,707.601,1013.873C723.03,1003.381,732.839,986.425,734.204,967.813C734.204,967.813,734.204,61.566,734.204,61.566C734.204,27.98,707.049,0.695,673.462,0.5C673.462,0.5,673.462,0.5,673.462,0.5" class="icon-n"/><glyph unicode="&#x004f;" d="M508.004,726.127C475.732,726.127,447.332,744.845,447.332,767.758C447.332,767.758,447.332,982.369,447.332,982.369C447.332,1005.282,474.441,1024,508.004,1024C541.567,1024,568.676,1005.282,568.676,982.369C568.676,982.369,568.676,767.758,568.676,767.758C568.676,744.845,541.567,726.127,508.004,726.127C508.004,726.127,508.004,726.127,508.004,726.127M508.004,0C475.732,0,447.332,18.718,447.332,41.631C447.332,41.631,447.332,256.565,447.332,256.565C447.332,279.478,474.441,298.196,508.004,298.196C541.567,298.196,568.676,279.478,568.676,256.565C568.676,256.565,568.676,41.631,568.676,41.631C568.676,18.718,541.567,0,508.004,0C508.004,0,508.004,0,508.004,0M831.05,115.858C798.777,115.858,770.378,136.189,770.378,161.039C770.378,161.039,770.378,834.239,770.378,834.239C770.378,859.089,797.487,879.42,831.05,879.42C864.613,879.42,891.722,859.089,891.722,834.239C891.722,834.239,891.722,161.361,891.722,161.361C891.399,136.189,864.29,115.858,831.05,115.858C831.05,115.858,831.05,115.858,831.05,115.858M193.672,115.858C161.4,115.858,133,136.189,133,161.039C133,161.039,133,834.239,133,834.239C133,859.089,160.109,879.42,193.672,879.42C227.235,879.42,254.344,859.089,254.344,834.239C254.344,834.239,254.344,161.361,254.344,161.361C254.021,136.189,226.912,115.858,193.672,115.858C193.672,115.858,193.672,115.858,193.672,115.858" class="icon-o"/><glyph unicode="&#x0050;" d="M353.539,0C320.114,0,293,27.114,293,60.539C293,60.539,293,958.958,293,958.958C296.381,1005.425,348.837,1030.799,387.382,1004.62C402.678,994.219,412.403,977.41,413.755,958.958C413.755,958.958,413.755,60.539,413.755,60.539C413.755,27.242,386.835,0.193,353.539,0C353.539,0,353.539,0,353.539,0M670.723,368.062C637.298,368.062,610.184,395.176,610.184,428.601C610.184,428.601,610.184,958.958,610.184,958.958C606.803,1005.425,654.976,1038.174,696.935,1017.855C719.282,1007.067,732.743,983.721,730.939,958.958C730.939,958.958,730.939,428.601,730.939,428.601C730.939,395.305,704.019,368.255,670.723,368.062C670.723,368.062,670.723,368.062,670.723,368.062" class="icon-p"/><glyph unicode="&#x0051;" d="M508.522,759.474C479.863,759.474,454.642,776.096,454.642,796.444C454.642,796.444,454.642,987.029,454.642,987.029C454.642,1007.378,478.716,1024,508.522,1024C538.328,1024,562.402,1007.378,562.402,987.029C562.402,987.029,562.402,796.444,562.402,796.444C562.402,776.096,538.328,759.474,508.522,759.474C508.522,759.474,508.522,759.474,508.522,759.474M508.522,0C479.863,0,454.642,16.622,454.642,36.971C454.642,36.971,454.642,285.161,454.642,285.161C454.642,305.509,478.716,322.132,508.522,322.132C538.328,322.132,562.402,305.509,562.402,285.161C562.402,285.161,562.402,36.971,562.402,36.971C562.402,16.622,538.328,0,508.522,0C508.522,0,508.522,0,508.522,0M795.403,217.525C766.743,217.525,741.523,235.58,741.523,257.648C741.523,257.648,741.523,855.483,741.523,855.483C741.523,877.551,765.597,895.606,795.403,895.606C825.208,895.606,849.282,877.551,849.282,855.483C849.282,855.483,849.282,257.935,849.282,257.935C848.996,235.58,824.922,217.525,795.403,217.525C795.403,217.525,795.403,217.525,795.403,217.525M229.38,217.525C200.72,217.525,175.5,235.58,175.5,257.648C175.5,257.648,175.5,855.483,175.5,855.483C175.5,877.551,199.574,895.606,229.38,895.606C259.185,895.606,283.259,877.551,283.259,855.483C283.259,855.483,283.259,257.935,283.259,257.935C282.973,235.58,258.899,217.525,229.38,217.525C229.38,217.525,229.38,217.525,229.38,217.525" class="icon-q"/><glyph unicode="&#x0052;" d="M355.787,13.221C322.777,13.221,296,39.997,296,73.007C296,73.007,296,960.266,296,960.266C299.339,1006.156,351.144,1031.215,389.21,1005.36C404.316,995.089,413.92,978.488,415.255,960.266C415.255,960.266,415.255,73.007,415.255,73.007C415.255,40.125,388.669,13.411,355.787,13.221C355.787,13.221,355.787,13.221,355.787,13.221M669.03,440.313C636.021,440.313,609.244,467.09,609.244,500.1C609.244,500.1,609.244,960.266,609.244,960.266C605.905,1006.156,653.479,1038.498,694.917,1018.431C716.987,1007.777,730.28,984.721,728.499,960.266C728.499,960.266,728.499,500.1,728.499,500.1C728.499,467.217,701.913,440.504,669.03,440.313C669.03,440.313,669.03,440.313,669.03,440.313M669.03,0.5C702.04,0.5,728.817,27.277,728.817,60.287C728.817,60.287,728.817,240.283,728.817,240.283C725.478,286.172,673.673,311.231,635.607,285.377C620.501,275.105,610.897,258.505,609.562,240.283C609.562,240.283,609.562,60.287,609.562,60.287C609.562,27.404,636.148,0.691,669.03,0.5C669.03,0.5,669.03,0.5,669.03,0.5" class="icon-r"/><glyph unicode="&#x0053;" d="M763.925,0C797.442,0,824.63,27.188,824.63,60.705C824.63,60.705,824.63,445.922,824.63,445.922C828.02,492.516,779.715,525.355,737.641,504.98C715.232,494.163,701.735,470.753,703.543,445.922C703.543,445.922,703.543,60.382,703.543,60.382C703.705,27.123,730.667,0.161,763.925,0C763.925,0,763.925,0,763.925,0M512.065,231.195C545.582,231.195,572.77,258.383,572.77,291.9C572.77,291.9,572.77,677.117,572.77,677.117C576.16,723.711,527.855,756.549,485.781,736.175C463.372,725.357,449.875,701.947,451.683,677.117C451.683,677.117,451.683,291.9,451.683,291.9C451.683,258.512,478.677,231.389,512.065,231.195C512.065,231.195,512.065,231.195,512.065,231.195M260.205,517.282C293.722,517.282,320.91,544.47,320.91,577.987C320.91,577.987,320.91,963.204,320.91,963.204C320.91,1009.927,270.311,1039.149,229.852,1015.772C211.06,1004.922,199.5,984.903,199.5,963.204C199.5,963.204,199.5,577.664,199.5,577.664C199.694,544.276,226.817,517.282,260.205,517.282C260.205,517.282,260.205,517.282,260.205,517.282" class="icon-s"/><glyph unicode="&#x0054;" d="M512.583,725.938C479.355,725.938,452.361,752.804,452.168,786.032C452.168,786.032,452.168,967.918,452.168,967.918C455.542,1014.289,507.891,1039.612,546.357,1013.486C561.621,1003.106,571.326,986.332,572.676,967.918C572.676,967.918,572.676,786.032,572.676,786.032C572.515,752.932,545.682,726.099,512.583,725.938C512.583,725.938,512.583,725.938,512.583,725.938M512.583,0C479.355,0,452.361,26.865,452.168,60.093C452.168,60.093,452.168,556.906,452.168,556.906C448.794,603.278,496.868,635.959,538.741,615.682C561.043,604.917,574.475,581.618,572.676,556.906C572.676,556.906,572.676,60.093,572.676,60.093C572.515,26.994,545.682,0.161,512.583,0C512.583,0,512.583,0,512.583,0" class="icon-t"/><glyph unicode="&#x0055;" d="M225.166,188.24C187.486,193.124,160.544,227.085,164.36,264.895C164.36,264.895,164.36,947.346,164.36,947.346C160.544,985.155,187.486,1019.116,225.166,1024C262.717,1018.954,289.465,985.026,285.649,947.346C285.649,947.346,285.649,264.895,285.649,264.895C289.465,227.214,262.717,193.286,225.166,188.24C225.166,188.24,225.166,188.24,225.166,188.24M512.054,0C478.482,0,451.248,27.233,451.248,60.806C451.248,60.806,451.248,382.302,451.248,382.302C447.852,428.974,496.238,461.867,538.382,441.458C560.829,430.623,574.348,407.174,572.537,382.302C572.537,382.302,572.537,60.806,572.537,60.806C572.537,27.363,545.498,0.194,512.054,0C512.054,0,512.054,0,512.054,0M798.943,188.24C761.262,193.124,734.32,227.085,738.136,264.895C738.136,264.895,738.136,947.346,738.136,947.346C734.32,985.155,761.262,1019.116,798.943,1024C836.623,1019.116,863.565,985.155,859.749,947.346C859.749,947.346,859.749,264.895,859.749,264.895C863.565,227.085,836.623,193.124,798.943,188.24C798.943,188.24,798.943,188.24,798.943,188.24" class="icon-u"/><glyph unicode="&#x0056;" d="M226.539,514.257C193.242,514.257,166.193,541.177,166,574.473C166,574.473,166,958.958,166,958.958C169.381,1005.425,221.837,1030.799,260.382,1004.62C275.678,994.219,285.403,977.41,286.755,958.958C286.755,958.958,286.755,574.473,286.755,574.473C286.594,541.306,259.706,514.418,226.539,514.257C226.539,514.257,226.539,514.257,226.539,514.257M512.165,0C478.74,0,451.627,27.114,451.627,60.539C451.627,60.539,451.627,445.024,451.627,445.024C448.245,491.49,496.419,524.239,538.377,503.92C560.725,493.132,574.185,469.786,572.382,445.024C572.382,445.024,572.382,60.539,572.382,60.539C572.382,27.242,545.461,0.193,512.165,0C512.165,0,512.165,0,512.165,0M797.792,514.257C764.367,514.257,737.253,541.37,737.253,574.795C737.253,574.795,737.253,958.958,737.253,958.958C733.872,1005.425,782.045,1038.174,824.004,1017.855C846.351,1007.067,859.812,983.721,858.008,958.958C858.008,958.958,858.008,574.473,858.008,574.473C857.847,541.306,830.959,514.418,797.792,514.257C797.792,514.257,797.792,514.257,797.792,514.257" class="icon-v"/><glyph unicode="&#x0057;" d="M195.539,0C162.114,0,135,27.114,135,60.539C135,60.539,135,958.958,135,958.958C138.381,1005.425,190.837,1030.799,229.382,1004.62C244.678,994.219,254.403,977.41,255.755,958.958C255.755,958.958,255.755,60.539,255.755,60.539C255.755,27.242,228.835,0.193,195.539,0C195.539,0,195.539,0,195.539,0M508.536,0C475.111,0,447.998,27.114,447.998,60.539C447.998,60.539,447.998,445.024,447.998,445.024C451.379,491.49,503.835,516.865,542.38,490.685C557.676,480.284,567.401,463.475,568.753,445.024C568.753,445.024,568.753,60.539,568.753,60.539C568.753,27.242,541.833,0.193,508.536,0C508.536,0,508.536,0,508.536,0M829.585,0C796.159,0,769.046,27.114,769.046,60.539C769.046,60.539,769.046,958.958,769.046,958.958C765.665,1005.425,813.838,1038.174,855.796,1017.855C878.144,1007.067,891.604,983.721,889.801,958.958C889.801,958.958,889.801,60.539,889.801,60.539C889.801,27.242,862.881,0.193,829.585,0C829.585,0,829.585,0,829.585,0" class="icon-w"/><glyph unicode="&#x0058;" d="M676.136,583.987C642.84,583.987,615.831,610.996,615.831,644.293C615.831,644.293,615.831,955.764,615.831,955.764C619.199,1002.052,671.453,1027.329,709.849,1001.25C725.086,990.889,734.774,974.144,736.121,955.764C736.121,955.764,736.121,644.293,736.121,644.293C736.121,611.125,709.304,584.18,676.136,583.987C676.136,583.987,676.136,583.987,676.136,583.987M669.079,0.5C635.398,0.5,608.228,28.087,608.774,61.768C608.774,61.768,608.774,372.277,608.774,372.277C612.142,418.564,664.396,443.841,702.792,417.762C718.029,407.401,727.717,390.657,729.064,372.277C729.064,372.277,729.064,61.768,729.064,61.768C729.609,28.215,702.632,0.66,669.079,0.5C669.079,0.5,669.079,0.5,669.079,0.5M355.362,592.007C322.066,592.007,295.057,619.016,295.057,652.312C295.057,652.312,295.057,963.783,295.057,963.783C295.057,1010.456,345.579,1039.614,385.996,1016.294C404.762,1005.452,416.309,985.436,416.309,963.783C416.309,963.783,416.309,652.312,416.309,652.312C416.309,618.759,388.915,591.654,355.362,592.007C355.362,592.007,355.362,592.007,355.362,592.007M348.305,8.519C315.009,8.519,288,35.528,288,68.825C288,68.825,288,380.296,288,380.296C291.368,426.584,343.622,451.861,382.019,425.782C397.256,415.421,406.943,398.676,408.29,380.296C408.29,380.296,408.29,68.825,408.29,68.825C408.29,35.657,381.473,8.712,348.305,8.519C348.305,8.519,348.305,8.519,348.305,8.519" class="icon-x"/><glyph unicode="&#x0059;" d="M226.539,610.861C193.242,610.861,166.193,637.781,166,671.077C166,671.077,166,958.958,166,958.958C169.381,1005.425,221.837,1030.799,260.382,1004.62C275.678,994.219,285.403,977.41,286.755,958.958C286.755,958.958,286.755,671.077,286.755,671.077C286.594,637.91,259.706,611.022,226.539,610.861C226.539,610.861,226.539,610.861,226.539,610.861M512.165,0C478.74,0,451.627,27.114,451.627,60.539C451.627,60.539,451.627,573.829,451.627,573.829C448.245,620.296,496.419,653.045,538.377,632.726C560.725,621.938,574.185,598.592,572.382,573.829C572.382,573.829,572.382,60.539,572.382,60.539C572.382,27.242,545.461,0.193,512.165,0C512.165,0,512.165,0,512.165,0M797.792,610.861C764.367,610.861,737.253,637.974,737.253,671.399C737.253,671.399,737.253,958.958,737.253,958.958C733.872,1005.425,782.045,1038.174,824.004,1017.855C846.351,1007.067,859.812,983.721,858.008,958.958C858.008,958.958,858.008,671.077,858.008,671.077C857.847,637.91,830.959,611.022,797.792,610.861C797.792,610.861,797.792,610.861,797.792,610.861" class="icon-y"/><glyph unicode="&#x005a;" d="M261.612,0C228.368,0,201.361,26.878,201.168,60.122C201.168,60.122,201.168,444.003,201.168,444.003C197.792,490.397,245.89,523.095,287.783,502.807C310.095,492.037,323.534,468.727,321.734,444.003C321.734,444.003,321.734,60.122,321.734,60.122C321.573,27.007,294.727,0.161,261.612,0C261.612,0,261.612,0,261.612,0M512.388,230.2C479.016,230.2,451.945,257.271,451.945,290.644C451.945,290.644,451.945,674.204,451.945,674.204C448.569,720.597,496.667,753.295,538.559,733.008C560.872,722.237,574.311,698.928,572.511,674.204C572.511,674.204,572.511,290.644,572.511,290.644C572.511,257.4,545.632,230.393,512.388,230.2C512.388,230.2,512.388,230.2,512.388,230.2M763.165,515.057C729.793,515.057,702.722,542.128,702.722,575.5C702.722,575.5,702.722,959.06,702.722,959.06C699.346,1005.454,747.443,1038.151,789.336,1017.864C811.649,1007.094,825.088,983.784,823.287,959.06C823.287,959.06,823.287,575.179,823.287,575.179C823.127,542.064,796.281,515.218,763.165,515.057C763.165,515.057,763.165,515.057,763.165,515.057" class="icon-z"/><glyph unicode="&#x0061;" d="M196.1,2.769C162.459,2.769,135.169,30.058,135.169,63.7C135.169,63.7,135.169,450.675,135.169,450.675C131.766,497.443,180.252,530.404,222.482,509.953C244.975,499.096,258.522,475.598,256.707,450.675C256.707,450.675,256.707,63.7,256.707,63.7C256.707,30.188,229.612,2.963,196.1,2.769C196.1,2.769,196.1,2.769,196.1,2.769M829.392,0.5C795.75,0.5,768.461,27.789,768.461,61.431C768.461,61.431,768.461,448.406,768.461,448.406C771.864,495.174,824.66,520.713,863.455,494.364C878.849,483.895,888.637,466.977,889.999,448.406C889.999,448.406,889.999,61.431,889.999,61.431C889.999,27.919,862.904,0.694,829.392,0.5C829.392,0.5,829.392,0.5,829.392,0.5M510.801,2.769C477.16,2.769,449.871,30.058,449.871,63.7C449.871,63.7,449.871,967.939,449.871,967.939C453.274,1014.706,506.07,1040.245,544.864,1013.896C560.259,1003.428,570.047,986.51,571.408,967.939C571.408,967.939,571.408,63.7,571.408,63.7C571.408,30.188,544.313,2.963,510.801,2.769C510.801,2.769,510.801,2.769,510.801,2.769" class="icon-a"/><glyph unicode="&#x0062;" d="M353.539,0C320.114,0,293,27.114,293,60.539C293,60.539,293,958.958,293,958.958C296.381,1005.425,348.837,1030.799,387.382,1004.62C402.678,994.219,412.403,977.41,413.755,958.958C413.755,958.958,413.755,60.539,413.755,60.539C413.755,27.242,386.835,0.193,353.539,0C353.539,0,353.539,0,353.539,0M670.723,593.472C637.298,593.472,610.184,620.586,610.184,654.011C610.184,654.011,610.184,958.958,610.184,958.958C606.803,1005.425,654.976,1038.174,696.935,1017.855C719.282,1007.067,732.743,983.721,730.939,958.958C730.939,958.958,730.939,653.689,730.939,653.689C730.778,620.521,703.89,593.633,670.723,593.472C670.723,593.472,670.723,593.472,670.723,593.472M670.723,9.016C637.298,9.016,610.184,36.13,610.184,69.555C610.184,69.555,610.184,375.468,610.184,375.468C606.803,421.935,654.976,454.684,696.935,434.365C719.282,423.577,732.743,400.231,730.939,375.468C730.939,375.468,730.939,70.199,730.939,70.199C731.293,36.645,704.276,9.177,670.723,9.016C670.723,9.016,670.723,9.016,670.723,9.016" class="icon-b"/><glyph unicode="&#x0063;" d="M669.504,726.127C637.232,726.127,608.832,744.845,608.832,767.758C608.832,767.758,608.832,982.369,608.832,982.369C608.832,1005.282,635.941,1024,669.504,1024C703.067,1024,730.176,1005.282,730.176,982.369C730.176,982.369,730.176,767.758,730.176,767.758C730.176,744.845,703.067,726.127,669.504,726.127C669.504,726.127,669.504,726.127,669.504,726.127M669.504,0C637.232,0,608.832,18.718,608.832,41.631C608.832,41.631,608.832,256.565,608.832,256.565C608.832,279.478,635.941,298.196,669.504,298.196C703.067,298.196,730.176,279.478,730.176,256.565C730.176,256.565,730.176,41.631,730.176,41.631C730.176,18.718,703.067,0,669.504,0C669.504,0,669.504,0,669.504,0M355.172,115.858C322.9,115.858,294.5,136.189,294.5,161.039C294.5,161.039,294.5,834.239,294.5,834.239C294.5,859.089,321.609,879.42,355.172,879.42C388.735,879.42,415.844,859.089,415.844,834.239C415.844,834.239,415.844,161.361,415.844,161.361C415.521,136.189,388.412,115.858,355.172,115.858C355.172,115.858,355.172,115.858,355.172,115.858" class="icon-c"/><glyph unicode="&#x0064;" d="M198.039,0C164.614,0,137.5,27.114,137.5,60.539C137.5,60.539,137.5,958.958,137.5,958.958C140.881,1005.425,193.337,1030.799,231.882,1004.62C247.178,994.219,256.903,977.41,258.255,958.958C258.255,958.958,258.255,60.539,258.255,60.539C258.255,27.242,231.335,0.193,198.039,0C198.039,0,198.039,0,198.039,0M515.223,722.278C481.798,722.278,454.684,749.391,454.684,782.816C454.684,782.816,454.684,958.958,454.684,958.958C451.303,1005.425,499.476,1038.174,541.435,1017.855C563.782,1007.067,577.243,983.721,575.439,958.958C575.439,958.958,575.439,782.816,575.439,782.816C575.439,749.52,548.519,722.471,515.223,722.278C515.223,722.278,515.223,722.278,515.223,722.278M826.61,172.278C793.185,172.278,766.072,199.391,766.072,232.816C766.072,232.816,766.072,826.288,766.072,826.288C769.453,872.755,821.909,898.13,860.454,871.95C875.75,861.549,885.474,844.74,886.827,826.288C886.827,826.288,886.827,232.816,886.827,232.816C886.827,199.52,859.907,172.471,826.61,172.278C826.61,172.278,826.61,172.278,826.61,172.278M515.223,9.016C481.798,9.016,454.684,36.13,454.684,69.555C454.684,69.555,454.684,246.663,454.684,246.663C451.303,293.129,499.476,325.878,541.435,305.559C563.782,294.772,577.243,271.426,575.439,246.663C575.439,246.663,575.439,70.199,575.439,70.199C575.793,36.645,548.776,9.177,515.223,9.016C515.223,9.016,515.223,9.016,515.223,9.016" class="icon-d"/><glyph unicode="&#x0065;" d="M353.539,0C320.114,0,293,27.114,293,60.539C293,60.539,293,958.958,293,958.958C296.381,1005.425,348.837,1030.799,387.382,1004.62C402.678,994.219,412.403,977.41,413.755,958.958C413.755,958.958,413.755,60.539,413.755,60.539C413.755,27.242,386.835,0.193,353.539,0C353.539,0,353.539,0,353.539,0M670.723,754.479C637.298,754.479,610.184,781.593,610.184,815.018C610.184,815.018,610.184,958.958,610.184,958.958C606.803,1005.425,654.976,1038.174,696.935,1017.855C719.282,1007.067,732.743,983.721,730.939,958.958C730.939,958.958,730.939,815.018,730.939,815.018C730.939,781.722,704.019,754.672,670.723,754.479C670.723,754.479,670.723,754.479,670.723,754.479M670.723,397.687C637.298,397.687,610.184,424.801,610.184,458.226C610.184,458.226,610.184,600.878,610.184,600.878C606.803,647.345,654.976,680.094,696.935,659.775C719.282,648.987,732.743,625.641,730.939,600.878C730.939,600.878,730.939,456.938,730.939,456.938C730.231,424.125,703.536,397.848,670.723,397.687C670.723,397.687,670.723,397.687,670.723,397.687M670.723,9.016C637.298,9.016,610.184,36.13,610.184,69.555C610.184,69.555,610.184,246.663,610.184,246.663C606.803,293.129,654.976,325.878,696.935,305.559C719.282,294.772,732.743,271.426,730.939,246.663C730.939,246.663,730.939,70.199,730.939,70.199C731.293,36.645,704.276,9.177,670.723,9.016C670.723,9.016,670.723,9.016,670.723,9.016" class="icon-e"/><glyph unicode="&#x0066;" d="M353.539,0C320.114,0,293,27.114,293,60.539C293,60.539,293,958.958,293,958.958C296.381,1005.425,348.837,1030.799,387.382,1004.62C402.678,994.219,412.403,977.41,413.755,958.958C413.755,958.958,413.755,60.539,413.755,60.539C413.755,27.242,386.835,0.193,353.539,0C353.539,0,353.539,0,353.539,0M670.723,722.278C637.298,722.278,610.184,749.391,610.184,782.816C610.184,782.816,610.184,958.958,610.184,958.958C606.803,1005.425,654.976,1038.174,696.935,1017.855C719.282,1007.067,732.743,983.721,730.939,958.958C730.939,958.958,730.939,782.816,730.939,782.816C730.939,749.52,704.019,722.471,670.723,722.278C670.723,722.278,670.723,722.278,670.723,722.278M670.723,365.486C637.298,365.486,610.184,392.6,610.184,426.025C610.184,426.025,610.184,568.677,610.184,568.677C606.803,615.144,654.976,647.892,696.935,627.573C719.282,616.786,732.743,593.44,730.939,568.677C730.939,568.677,730.939,424.737,730.939,424.737C730.231,391.923,703.536,365.647,670.723,365.486C670.723,365.486,670.723,365.486,670.723,365.486" class="icon-f"/><glyph unicode="&#x0067;" d="M669.504,726.127C637.232,726.127,608.832,744.845,608.832,767.758C608.832,767.758,608.832,982.369,608.832,982.369C608.832,1005.282,635.941,1024,669.504,1024C703.067,1024,730.176,1005.282,730.176,982.369C730.176,982.369,730.176,767.758,730.176,767.758C730.176,744.845,703.067,726.127,669.504,726.127C669.504,726.127,669.504,726.127,669.504,726.127M669.504,0C634.747,0.678,607.38,29.82,608.832,64.545C608.832,64.545,608.832,392.431,608.832,392.431C605.444,439,653.723,471.821,695.774,451.457C718.171,440.646,731.661,417.249,729.853,392.431C729.853,392.431,729.853,63.576,729.853,63.576C730.757,29.336,703.745,0.871,669.504,0C669.504,0,669.504,0,669.504,0M355.172,115.858C322.9,115.858,294.5,136.189,294.5,161.039C294.5,161.039,294.5,834.239,294.5,834.239C294.5,859.089,321.609,879.42,355.172,879.42C388.735,879.42,415.844,859.089,415.844,834.239C415.844,834.239,415.844,161.361,415.844,161.361C415.521,136.189,388.412,115.858,355.172,115.858C355.172,115.858,355.172,115.858,355.172,115.858" class="icon-g"/><glyph unicode="&#x0068;" d="M512.401,361.3C480.199,361.3,451.862,379.977,451.862,402.84C451.862,402.84,451.862,616.979,451.862,616.979C451.862,639.842,478.911,658.519,512.401,658.519C545.89,658.519,572.939,639.842,572.939,616.979C572.939,616.979,572.939,402.518,572.939,402.518C572.939,379.655,545.89,361.3,512.401,361.3C512.401,361.3,512.401,361.3,512.401,361.3M195.539,0C162.114,0,135,27.114,135,60.539C135,60.539,135,958.958,135,958.958C138.381,1005.425,190.837,1030.799,229.382,1004.62C244.678,994.219,254.403,977.41,255.755,958.958C255.755,958.958,255.755,60.539,255.755,60.539C255.755,27.242,228.835,0.193,195.539,0C195.539,0,195.539,0,195.539,0M829.585,0C796.159,0,769.046,27.114,769.046,60.539C769.046,60.539,769.046,958.958,769.046,958.958C765.665,1005.425,813.838,1038.174,855.796,1017.855C878.144,1007.067,891.604,983.721,889.801,958.958C889.801,958.958,889.801,60.539,889.801,60.539C889.801,27.242,862.881,0.193,829.585,0C829.585,0,829.585,0,829.585,0" class="icon-h"/><glyph unicode="&#x0069;" d="M512.566,0.5C478.85,0.5,451.5,27.85,451.5,61.566C451.5,61.566,451.5,967.813,451.5,967.813C454.911,1014.685,507.824,1040.28,546.705,1013.873C562.134,1003.381,571.943,986.425,573.307,967.813C573.307,967.813,573.307,61.566,573.307,61.566C573.307,27.98,546.152,0.695,512.566,0.5C512.566,0.5,512.566,0.5,512.566,0.5" class="icon-i"/><glyph unicode="&#x006a;" d="M371.841,0C341.921,0,317.651,24.27,317.651,54.19C317.651,54.19,317.651,246.162,317.651,246.162C314.624,287.756,357.746,317.071,395.304,298.883C415.309,289.226,427.357,268.328,425.743,246.162C425.743,246.162,425.743,54.19,425.743,54.19C425.743,24.386,401.646,0.173,371.841,0C371.841,0,371.841,0,371.841,0M653.458,115.298C623.538,115.298,599.267,139.569,599.267,169.489C599.267,169.489,599.267,973.696,599.267,973.696C602.294,1015.29,649.249,1038.004,683.752,1014.569C697.444,1005.259,706.149,990.212,707.36,973.696C707.36,973.696,707.36,169.489,707.36,169.489C707.36,139.684,683.262,115.471,653.458,115.298C653.458,115.298,653.458,115.298,653.458,115.298" class="icon-j"/><glyph unicode="&#x006b;" d="M356.066,259.206C322.35,259.206,295,286.556,295,320.272C295,320.272,295,708.107,295,708.107C298.411,754.978,351.324,780.574,390.205,754.166C405.634,743.675,415.443,726.719,416.807,708.107C416.807,708.107,416.807,320.272,416.807,320.272C416.807,286.686,389.652,259.401,356.066,259.206C356.066,259.206,356.066,259.206,356.066,259.206M669.192,590.847C635.476,590.847,608.126,618.197,608.126,651.913C608.126,651.913,608.126,967.313,608.126,967.313C611.537,1014.185,664.45,1039.78,703.331,1013.373C718.76,1002.881,728.569,985.925,729.934,967.313C729.934,967.313,729.934,651.913,729.934,651.913C729.934,618.327,702.779,591.042,669.192,590.847C669.192,590.847,669.192,590.847,669.192,590.847M662.046,0C628.33,0,600.98,27.35,600.98,61.066C600.98,61.066,600.98,376.466,600.98,376.466C604.391,423.338,657.304,448.933,696.185,422.525C711.614,412.034,721.423,395.078,722.788,376.466C722.788,376.466,722.788,61.066,722.788,61.066C722.788,27.48,695.633,0.195,662.046,0C662.046,0,662.046,0,662.046,0" class="icon-k"/><glyph unicode="&#x006c;" d="M670.27,0.5C703.84,0.5,731.071,27.731,731.071,61.301C731.071,61.301,731.071,276.69,731.071,276.69C734.466,323.358,686.085,356.248,643.945,335.841C621.5,325.007,607.982,301.56,609.793,276.69C609.793,276.69,609.793,61.301,609.793,61.301C609.793,27.86,636.83,0.694,670.27,0.5C670.27,0.5,670.27,0.5,670.27,0.5M354.301,0.5C387.87,0.5,415.101,27.731,415.101,61.301C415.101,61.301,415.101,963.608,415.101,963.608C415.101,1010.405,364.423,1039.673,323.9,1016.259C305.078,1005.392,293.5,985.341,293.5,963.608C293.5,963.608,293.5,61.301,293.5,61.301C293.5,27.731,320.731,0.5,354.301,0.5C354.301,0.5,354.301,0.5,354.301,0.5" class="icon-l"/><glyph unicode="&#x006d;" d="M195.539,0C162.114,0,135,27.114,135,60.539C135,60.539,135,958.958,135,958.958C138.381,1005.425,190.837,1030.799,229.382,1004.62C244.678,994.219,254.403,977.41,255.755,958.958C255.755,958.958,255.755,60.539,255.755,60.539C255.755,27.242,228.835,0.193,195.539,0C195.539,0,195.539,0,195.539,0M508.536,192.564C475.111,192.564,447.998,219.678,447.998,253.103C447.998,253.103,447.998,637.588,447.998,637.588C444.617,684.055,492.79,716.803,534.748,696.484C557.096,685.697,570.556,662.351,568.753,637.588C568.753,637.588,568.753,253.103,568.753,253.103C568.753,219.807,541.833,192.758,508.536,192.564C508.536,192.564,508.536,192.564,508.536,192.564M829.585,0C796.159,0,769.046,27.114,769.046,60.539C769.046,60.539,769.046,958.958,769.046,958.958C765.665,1005.425,813.838,1038.174,855.796,1017.855C878.144,1007.067,891.604,983.721,889.801,958.958C889.801,958.958,889.801,60.539,889.801,60.539C889.801,27.242,862.881,0.193,829.585,0C829.585,0,829.585,0,829.585,0" class="icon-m"/><glyph unicode="&#x006e;" d="M351.566,0.5C317.85,0.5,290.5,27.85,290.5,61.566C290.5,61.566,290.5,967.813,290.5,967.813C293.911,1014.685,346.824,1040.28,385.705,1013.873C401.134,1003.381,410.943,986.425,412.307,967.813C412.307,967.813,412.307,61.566,412.307,61.566C412.307,27.98,385.152,0.695,351.566,0.5C351.566,0.5,351.566,0.5,351.566,0.5M673.462,0.5C639.746,0.5,612.396,27.85,612.396,61.566C612.396,61.566,612.396,967.813,612.396,967.813C615.807,1014.685,668.72,1040.28,707.601,1013.873C723.03,1003.381,732.839,986.425,734.204,967.813C734.204,967.813,734.204,61.566,734.204,61.566C734.204,27.98,707.049,0.695,673.462,0.5C673.462,0.5,673.462,0.5,673.462,0.5" class="icon-n"/><glyph unicode="&#x006f;" d="M508.004,726.127C475.732,726.127,447.332,744.845,447.332,767.758C447.332,767.758,447.332,982.369,447.332,982.369C447.332,1005.282,474.441,1024,508.004,1024C541.567,1024,568.676,1005.282,568.676,982.369C568.676,982.369,568.676,767.758,568.676,767.758C568.676,744.845,541.567,726.127,508.004,726.127C508.004,726.127,508.004,726.127,508.004,726.127M508.004,0C475.732,0,447.332,18.718,447.332,41.631C447.332,41.631,447.332,256.565,447.332,256.565C447.332,279.478,474.441,298.196,508.004,298.196C541.567,298.196,568.676,279.478,568.676,256.565C568.676,256.565,568.676,41.631,568.676,41.631C568.676,18.718,541.567,0,508.004,0C508.004,0,508.004,0,508.004,0M831.05,115.858C798.777,115.858,770.378,136.189,770.378,161.039C770.378,161.039,770.378,834.239,770.378,834.239C770.378,859.089,797.487,879.42,831.05,879.42C864.613,879.42,891.722,859.089,891.722,834.239C891.722,834.239,891.722,161.361,891.722,161.361C891.399,136.189,864.29,115.858,831.05,115.858C831.05,115.858,831.05,115.858,831.05,115.858M193.672,115.858C161.4,115.858,133,136.189,133,161.039C133,161.039,133,834.239,133,834.239C133,859.089,160.109,879.42,193.672,879.42C227.235,879.42,254.344,859.089,254.344,834.239C254.344,834.239,254.344,161.361,254.344,161.361C254.021,136.189,226.912,115.858,193.672,115.858C193.672,115.858,193.672,115.858,193.672,115.858" class="icon-o"/><glyph unicode="&#x0070;" d="M353.539,0C320.114,0,293,27.114,293,60.539C293,60.539,293,958.958,293,958.958C296.381,1005.425,348.837,1030.799,387.382,1004.62C402.678,994.219,412.403,977.41,413.755,958.958C413.755,958.958,413.755,60.539,413.755,60.539C413.755,27.242,386.835,0.193,353.539,0C353.539,0,353.539,0,353.539,0M670.723,368.062C637.298,368.062,610.184,395.176,610.184,428.601C610.184,428.601,610.184,958.958,610.184,958.958C606.803,1005.425,654.976,1038.174,696.935,1017.855C719.282,1007.067,732.743,983.721,730.939,958.958C730.939,958.958,730.939,428.601,730.939,428.601C730.939,395.305,704.019,368.255,670.723,368.062C670.723,368.062,670.723,368.062,670.723,368.062" class="icon-p"/><glyph unicode="&#x0071;" d="M508.522,759.474C479.863,759.474,454.642,776.096,454.642,796.444C454.642,796.444,454.642,987.029,454.642,987.029C454.642,1007.378,478.716,1024,508.522,1024C538.328,1024,562.402,1007.378,562.402,987.029C562.402,987.029,562.402,796.444,562.402,796.444C562.402,776.096,538.328,759.474,508.522,759.474C508.522,759.474,508.522,759.474,508.522,759.474M508.522,0C479.863,0,454.642,16.622,454.642,36.971C454.642,36.971,454.642,285.161,454.642,285.161C454.642,305.509,478.716,322.132,508.522,322.132C538.328,322.132,562.402,305.509,562.402,285.161C562.402,285.161,562.402,36.971,562.402,36.971C562.402,16.622,538.328,0,508.522,0C508.522,0,508.522,0,508.522,0M795.403,217.525C766.743,217.525,741.523,235.58,741.523,257.648C741.523,257.648,741.523,855.483,741.523,855.483C741.523,877.551,765.597,895.606,795.403,895.606C825.208,895.606,849.282,877.551,849.282,855.483C849.282,855.483,849.282,257.935,849.282,257.935C848.996,235.58,824.922,217.525,795.403,217.525C795.403,217.525,795.403,217.525,795.403,217.525M229.38,217.525C200.72,217.525,175.5,235.58,175.5,257.648C175.5,257.648,175.5,855.483,175.5,855.483C175.5,877.551,199.574,895.606,229.38,895.606C259.185,895.606,283.259,877.551,283.259,855.483C283.259,855.483,283.259,257.935,283.259,257.935C282.973,235.58,258.899,217.525,229.38,217.525C229.38,217.525,229.38,217.525,229.38,217.525" class="icon-q"/><glyph unicode="&#x0072;" d="M355.787,13.221C322.777,13.221,296,39.997,296,73.007C296,73.007,296,960.266,296,960.266C299.339,1006.156,351.144,1031.215,389.21,1005.36C404.316,995.089,413.92,978.488,415.255,960.266C415.255,960.266,415.255,73.007,415.255,73.007C415.255,40.125,388.669,13.411,355.787,13.221C355.787,13.221,355.787,13.221,355.787,13.221M669.03,440.313C636.021,440.313,609.244,467.09,609.244,500.1C609.244,500.1,609.244,960.266,609.244,960.266C605.905,1006.156,653.479,1038.498,694.917,1018.431C716.987,1007.777,730.28,984.721,728.499,960.266C728.499,960.266,728.499,500.1,728.499,500.1C728.499,467.217,701.913,440.504,669.03,440.313C669.03,440.313,669.03,440.313,669.03,440.313M669.03,0.5C702.04,0.5,728.817,27.277,728.817,60.287C728.817,60.287,728.817,240.283,728.817,240.283C725.478,286.172,673.673,311.231,635.607,285.377C620.501,275.105,610.897,258.505,609.562,240.283C609.562,240.283,609.562,60.287,609.562,60.287C609.562,27.404,636.148,0.691,669.03,0.5C669.03,0.5,669.03,0.5,669.03,0.5" class="icon-r"/><glyph unicode="&#x0073;" d="M763.925,0C797.442,0,824.63,27.188,824.63,60.705C824.63,60.705,824.63,445.922,824.63,445.922C828.02,492.516,779.715,525.355,737.641,504.98C715.232,494.163,701.735,470.753,703.543,445.922C703.543,445.922,703.543,60.382,703.543,60.382C703.705,27.123,730.667,0.161,763.925,0C763.925,0,763.925,0,763.925,0M512.065,231.195C545.582,231.195,572.77,258.383,572.77,291.9C572.77,291.9,572.77,677.117,572.77,677.117C576.16,723.711,527.855,756.549,485.781,736.175C463.372,725.357,449.875,701.947,451.683,677.117C451.683,677.117,451.683,291.9,451.683,291.9C451.683,258.512,478.677,231.389,512.065,231.195C512.065,231.195,512.065,231.195,512.065,231.195M260.205,517.282C293.722,517.282,320.91,544.47,320.91,577.987C320.91,577.987,320.91,963.204,320.91,963.204C320.91,1009.927,270.311,1039.149,229.852,1015.772C211.06,1004.922,199.5,984.903,199.5,963.204C199.5,963.204,199.5,577.664,199.5,577.664C199.694,544.276,226.817,517.282,260.205,517.282C260.205,517.282,260.205,517.282,260.205,517.282" class="icon-s"/><glyph unicode="&#x0074;" d="M512.583,725.938C479.355,725.938,452.361,752.804,452.168,786.032C452.168,786.032,452.168,967.918,452.168,967.918C455.542,1014.289,507.891,1039.612,546.357,1013.486C561.621,1003.106,571.326,986.332,572.676,967.918C572.676,967.918,572.676,786.032,572.676,786.032C572.515,752.932,545.682,726.099,512.583,725.938C512.583,725.938,512.583,725.938,512.583,725.938M512.583,0C479.355,0,452.361,26.865,452.168,60.093C452.168,60.093,452.168,556.906,452.168,556.906C448.794,603.278,496.868,635.959,538.741,615.682C561.043,604.917,574.475,581.618,572.676,556.906C572.676,556.906,572.676,60.093,572.676,60.093C572.515,26.994,545.682,0.161,512.583,0C512.583,0,512.583,0,512.583,0" class="icon-t"/><glyph unicode="&#x0075;" d="M225.166,188.24C187.486,193.124,160.544,227.085,164.36,264.895C164.36,264.895,164.36,947.346,164.36,947.346C160.544,985.155,187.486,1019.116,225.166,1024C262.717,1018.954,289.465,985.026,285.649,947.346C285.649,947.346,285.649,264.895,285.649,264.895C289.465,227.214,262.717,193.286,225.166,188.24C225.166,188.24,225.166,188.24,225.166,188.24M512.054,0C478.482,0,451.248,27.233,451.248,60.806C451.248,60.806,451.248,382.302,451.248,382.302C447.852,428.974,496.238,461.867,538.382,441.458C560.829,430.623,574.348,407.174,572.537,382.302C572.537,382.302,572.537,60.806,572.537,60.806C572.537,27.363,545.498,0.194,512.054,0C512.054,0,512.054,0,512.054,0M798.943,188.24C761.262,193.124,734.32,227.085,738.136,264.895C738.136,264.895,738.136,947.346,738.136,947.346C734.32,985.155,761.262,1019.116,798.943,1024C836.623,1019.116,863.565,985.155,859.749,947.346C859.749,947.346,859.749,264.895,859.749,264.895C863.565,227.085,836.623,193.124,798.943,188.24C798.943,188.24,798.943,188.24,798.943,188.24" class="icon-u"/><glyph unicode="&#x0076;" d="M226.539,514.257C193.242,514.257,166.193,541.177,166,574.473C166,574.473,166,958.958,166,958.958C169.381,1005.425,221.837,1030.799,260.382,1004.62C275.678,994.219,285.403,977.41,286.755,958.958C286.755,958.958,286.755,574.473,286.755,574.473C286.594,541.306,259.706,514.418,226.539,514.257C226.539,514.257,226.539,514.257,226.539,514.257M512.165,0C478.74,0,451.627,27.114,451.627,60.539C451.627,60.539,451.627,445.024,451.627,445.024C448.245,491.49,496.419,524.239,538.377,503.92C560.725,493.132,574.185,469.786,572.382,445.024C572.382,445.024,572.382,60.539,572.382,60.539C572.382,27.242,545.461,0.193,512.165,0C512.165,0,512.165,0,512.165,0M797.792,514.257C764.367,514.257,737.253,541.37,737.253,574.795C737.253,574.795,737.253,958.958,737.253,958.958C733.872,1005.425,782.045,1038.174,824.004,1017.855C846.351,1007.067,859.812,983.721,858.008,958.958C858.008,958.958,858.008,574.473,858.008,574.473C857.847,541.306,830.959,514.418,797.792,514.257C797.792,514.257,797.792,514.257,797.792,514.257" class="icon-v"/><glyph unicode="&#x0077;" d="M195.539,0C162.114,0,135,27.114,135,60.539C135,60.539,135,958.958,135,958.958C138.381,1005.425,190.837,1030.799,229.382,1004.62C244.678,994.219,254.403,977.41,255.755,958.958C255.755,958.958,255.755,60.539,255.755,60.539C255.755,27.242,228.835,0.193,195.539,0C195.539,0,195.539,0,195.539,0M508.536,0C475.111,0,447.998,27.114,447.998,60.539C447.998,60.539,447.998,445.024,447.998,445.024C451.379,491.49,503.835,516.865,542.38,490.685C557.676,480.284,567.401,463.475,568.753,445.024C568.753,445.024,568.753,60.539,568.753,60.539C568.753,27.242,541.833,0.193,508.536,0C508.536,0,508.536,0,508.536,0M829.585,0C796.159,0,769.046,27.114,769.046,60.539C769.046,60.539,769.046,958.958,769.046,958.958C765.665,1005.425,813.838,1038.174,855.796,1017.855C878.144,1007.067,891.604,983.721,889.801,958.958C889.801,958.958,889.801,60.539,889.801,60.539C889.801,27.242,862.881,0.193,829.585,0C829.585,0,829.585,0,829.585,0" class="icon-w"/><glyph unicode="&#x0078;" d="M676.136,583.987C642.84,583.987,615.831,610.996,615.831,644.293C615.831,644.293,615.831,955.764,615.831,955.764C619.199,1002.052,671.453,1027.329,709.849,1001.25C725.086,990.889,734.774,974.144,736.121,955.764C736.121,955.764,736.121,644.293,736.121,644.293C736.121,611.125,709.304,584.18,676.136,583.987C676.136,583.987,676.136,583.987,676.136,583.987M669.079,0.5C635.398,0.5,608.228,28.087,608.774,61.768C608.774,61.768,608.774,372.277,608.774,372.277C612.142,418.564,664.396,443.841,702.792,417.762C718.029,407.401,727.717,390.657,729.064,372.277C729.064,372.277,729.064,61.768,729.064,61.768C729.609,28.215,702.632,0.66,669.079,0.5C669.079,0.5,669.079,0.5,669.079,0.5M355.362,592.007C322.066,592.007,295.057,619.016,295.057,652.312C295.057,652.312,295.057,963.783,295.057,963.783C295.057,1010.456,345.579,1039.614,385.996,1016.294C404.762,1005.452,416.309,985.436,416.309,963.783C416.309,963.783,416.309,652.312,416.309,652.312C416.309,618.759,388.915,591.654,355.362,592.007C355.362,592.007,355.362,592.007,355.362,592.007M348.305,8.519C315.009,8.519,288,35.528,288,68.825C288,68.825,288,380.296,288,380.296C291.368,426.584,343.622,451.861,382.019,425.782C397.256,415.421,406.943,398.676,408.29,380.296C408.29,380.296,408.29,68.825,408.29,68.825C408.29,35.657,381.473,8.712,348.305,8.519C348.305,8.519,348.305,8.519,348.305,8.519" class="icon-x"/><glyph unicode="&#x0079;" d="M226.539,610.861C193.242,610.861,166.193,637.781,166,671.077C166,671.077,166,958.958,166,958.958C169.381,1005.425,221.837,1030.799,260.382,1004.62C275.678,994.219,285.403,977.41,286.755,958.958C286.755,958.958,286.755,671.077,286.755,671.077C286.594,637.91,259.706,611.022,226.539,610.861C226.539,610.861,226.539,610.861,226.539,610.861M512.165,0C478.74,0,451.627,27.114,451.627,60.539C451.627,60.539,451.627,573.829,451.627,573.829C448.245,620.296,496.419,653.045,538.377,632.726C560.725,621.938,574.185,598.592,572.382,573.829C572.382,573.829,572.382,60.539,572.382,60.539C572.382,27.242,545.461,0.193,512.165,0C512.165,0,512.165,0,512.165,0M797.792,610.861C764.367,610.861,737.253,637.974,737.253,671.399C737.253,671.399,737.253,958.958,737.253,958.958C733.872,1005.425,782.045,1038.174,824.004,1017.855C846.351,1007.067,859.812,983.721,858.008,958.958C858.008,958.958,858.008,671.077,858.008,671.077C857.847,637.91,830.959,611.022,797.792,610.861C797.792,610.861,797.792,610.861,797.792,610.861" class="icon-y"/><glyph unicode="&#x007a;" d="M261.612,0C228.368,0,201.361,26.878,201.168,60.122C201.168,60.122,201.168,444.003,201.168,444.003C197.792,490.397,245.89,523.095,287.783,502.807C310.095,492.037,323.534,468.727,321.734,444.003C321.734,444.003,321.734,60.122,321.734,60.122C321.573,27.007,294.727,0.161,261.612,0C261.612,0,261.612,0,261.612,0M512.388,230.2C479.016,230.2,451.945,257.271,451.945,290.644C451.945,290.644,451.945,674.204,451.945,674.204C448.569,720.597,496.667,753.295,538.559,733.008C560.872,722.237,574.311,698.928,572.511,674.204C572.511,674.204,572.511,290.644,572.511,290.644C572.511,257.4,545.632,230.393,512.388,230.2C512.388,230.2,512.388,230.2,512.388,230.2M763.165,515.057C729.793,515.057,702.722,542.128,702.722,575.5C702.722,575.5,702.722,959.06,702.722,959.06C699.346,1005.454,747.443,1038.151,789.336,1017.864C811.649,1007.094,825.088,983.784,823.287,959.06C823.287,959.06,823.287,575.179,823.287,575.179C823.127,542.064,796.281,515.218,763.165,515.057C763.165,515.057,763.165,515.057,763.165,515.057" class="icon-z"/></font>
</defs>
</svg>
